# File created by Blade
# Date/Time:  Mon Sep 29 17:58:21 2014
# Frame Rate: 120.000 fps
#------------------------------------------------------
:FULLY-SPECIFIED
:DEGREES
2751
root 0.006422 3.454739 -8.278784 -26.859402 -5.801439 3.719462
Spine 40.551199 -44.013409 -18.968063
Head -105.321146 -54.083766 81.956013
LeftShoulder 19.232196 -7.842028 20.631969
LeftArm 33.460037 31.715002 -40.050168
LeftForeArm 12.580829 -0.000000 17.749542
LeftHand -31.099526 0.000000 -13.299704
LeftHandThumb1 -26.253704 0.000000 33.147579
RightShoulder -16.310559 20.152697 -27.554107
RightArm -5.032393 -38.196586 92.767009
RightForeArm 5.253408 -0.000000 8.782761
RightHand -17.422294 0.000000 -50.914177
RightHandThumb1 -24.326973 -0.000000 -32.862282
LeftUpLeg -62.736425 12.973246 -9.304554
LeftLeg 5.008576 -0.000000 -0.000000
LeftFoot 32.827191 5.020397 -11.604153
LeftToeBase 17.279516 -0.000000 -0.000000
RightUpLeg -92.614247 34.293899 36.338721
RightLeg 119.896330 -0.000000 -0.000000
RightFoot 6.778257 -8.755611 -3.670860
RightToeBase 4.139361 -0.000000 -0.000000
2752
root 0.005296 3.455276 -8.278439 -26.859631 -5.819539 3.720624
Spine 40.575307 -44.025952 -19.003622
Head -105.349125 -54.100769 82.011144
LeftShoulder 19.238589 -7.847310 20.655323
LeftArm 33.403426 31.727841 -40.113209
LeftForeArm 12.621483 0.000000 17.699348
LeftHand -31.089473 0.000000 -13.458345
LeftHandThumb1 -26.253704 0.000000 33.147579
RightShoulder -16.303033 20.157077 -27.517982
RightArm -5.000204 -38.262504 92.733544
RightForeArm 5.272535 -0.000000 8.791957
RightHand -17.457822 0.000000 -50.905470
RightHandThumb1 -24.326973 -0.000000 -32.862282
LeftUpLeg -62.730446 12.967608 -9.255355
LeftLeg 5.001158 -0.000000 -0.000000
LeftFoot 32.835253 5.188166 -11.702327
LeftToeBase 17.353716 -0.000000 -0.000000
RightUpLeg -92.593111 34.308185 36.374411
RightLeg 119.897120 -0.000000 -0.000000
RightFoot 6.844498 -8.827367 -3.471485
RightToeBase 3.793781 -0.000000 -0.000000
2753
root 0.004785 3.455857 -8.279132 -26.854283 -5.842019 3.723629
Spine 40.581159 -44.023357 -19.012690
Head -105.366504 -54.115187 82.073671
LeftShoulder 19.236556 -7.852201 20.654607
LeftArm 33.404258 31.785238 -40.091120
LeftForeArm 12.679677 -0.000000 17.672007
LeftHand -31.063213 -0.000000 -13.485606
LeftHandThumb1 -26.253704 0.000000 33.147579
RightShoulder -16.312171 20.151422 -27.488636
RightArm -4.967503 -38.283604 92.694589
RightForeArm 5.290656 -0.000000 8.806532
RightHand -17.400892 -0.000000 -50.938144
RightHandThumb1 -24.326973 -0.000000 -32.862282
LeftUpLeg -62.727248 12.954960 -9.192878
LeftLeg 5.003032 -0.000000 -0.000000
LeftFoot 32.827855 5.230894 -11.678532
LeftToeBase 17.391024 -0.000000 -0.000000
RightUpLeg -92.589855 34.320700 36.367346
RightLeg 119.888613 -0.000000 -0.000000
RightFoot 6.812597 -8.763585 -3.634115
RightToeBase 4.013414 -0.000000 -0.000000
2754
root 0.003387 3.456704 -8.279059 -26.854472 -5.860997 3.715531
Spine 40.599122 -44.019288 -19.021962
Head -105.357105 -54.126049 82.117865
LeftShoulder 19.238329 -7.870082 20.653477
LeftArm 33.396142 31.842114 -40.082019
LeftForeArm 12.721570 -0.000000 17.663073
LeftHand -31.043502 -0.000000 -13.586452
LeftHandThumb1 -26.253704 0.000000 33.147579
RightShoulder -16.324094 20.129504 -27.451148
RightArm -4.912112 -38.308615 92.638645
RightForeArm 5.283668 -0.000000 8.829755
RightHand -17.438189 -0.000000 -50.897068
RightHandThumb1 -24.326973 -0.000000 -32.862282
LeftUpLeg -62.720305 12.942315 -9.136594
LeftLeg 5.005646 -0.000000 -0.000000
LeftFoot 32.801889 5.177597 -11.590976
LeftToeBase 17.596147 -0.000000 -0.000000
RightUpLeg -92.566350 34.327407 36.410001
RightLeg 119.883989 -0.000000 -0.000000
RightFoot 6.860685 -8.812736 -3.521040
RightToeBase 3.760692 -0.000000 -0.000000
2755
root 0.002376 3.457400 -8.278472 -26.849953 -5.873678 3.705508
Spine 40.604122 -44.019757 -19.019457
Head -105.356881 -54.140983 82.159074
LeftShoulder 19.238557 -7.863451 20.672520
LeftArm 33.415469 31.857857 -40.094210
LeftForeArm 12.755640 -0.000000 17.650514
LeftHand -30.998293 0.000000 -13.662936
LeftHandThumb1 -26.253704 0.000000 33.147579
RightShoulder -16.341168 20.101994 -27.429357
RightArm -4.857723 -38.321717 92.590724
RightForeArm 5.266562 -0.000000 8.839244
RightHand -17.423910 -0.000000 -50.810785
RightHandThumb1 -24.326973 -0.000000 -32.862282
LeftUpLeg -62.708085 12.905612 -9.042526
LeftLeg 5.014566 -0.000000 -0.000000
LeftFoot 32.830513 5.257588 -11.636880
LeftToeBase 17.394918 -0.000000 -0.000000
RightUpLeg -92.552621 34.331621 36.438198
RightLeg 119.878306 -0.000000 -0.000000
RightFoot 6.869139 -8.824706 -3.527928
RightToeBase 3.755878 -0.000000 -0.000000
2756
root 0.002293 3.457813 -8.279121 -26.844134 -5.883573 3.696640
Spine 40.607416 -44.016220 -19.013148
Head -105.352484 -54.160867 82.199145
LeftShoulder 19.247314 -7.873662 20.683930
LeftArm 33.429802 31.901150 -40.081311
LeftForeArm 12.800511 0.000000 17.655089
LeftHand -30.921124 -0.000000 -13.704042
LeftHandThumb1 -26.253704 0.000000 33.147579
RightShoulder -16.354923 20.101538 -27.409282
RightArm -4.839228 -38.322548 92.564542
RightForeArm 5.217376 -0.000000 8.843032
RightHand -17.433057 0.000000 -50.801243
RightHandThumb1 -24.326973 -0.000000 -32.862282
LeftUpLeg -62.691099 12.852898 -8.931075
LeftLeg 5.016987 -0.000000 -0.000000
LeftFoot 32.816515 5.189268 -11.529719
LeftToeBase 17.518685 -0.000000 -0.000000
RightUpLeg -92.546400 34.332014 36.456766
RightLeg 119.872685 -0.000000 -0.000000
RightFoot 6.878851 -8.837339 -3.534861
RightToeBase 3.707754 -0.000000 -0.000000
2757
root 0.000747 3.457655 -8.279212 -26.823871 -5.889687 3.660119
Spine 40.588503 -44.048929 -18.948696
Head -105.283260 -54.154782 82.114061
LeftShoulder 19.244263 -7.891488 20.670395
LeftArm 33.423384 31.886045 -40.125463
LeftForeArm 12.820245 -0.000000 17.666092
LeftHand -30.874893 0.000000 -13.752668
LeftHandThumb1 -26.253704 0.000000 33.147579
RightShoulder -16.385910 20.089904 -27.433105
RightArm -4.800363 -38.343032 92.548068
RightForeArm 5.240489 -0.000000 8.837592
RightHand -17.421369 0.000000 -50.734019
RightHandThumb1 -24.326973 -0.000000 -32.862282
LeftUpLeg -62.689864 12.783487 -8.798882
LeftLeg 5.032203 -0.000000 -0.000000
LeftFoot 32.840691 5.260458 -11.589883
LeftToeBase 17.298970 -0.000000 -0.000000
RightUpLeg -92.561197 34.331124 36.477228
RightLeg 119.867439 -0.000000 -0.000000
RightFoot 6.869182 -8.820037 -3.578380
RightToeBase 3.772543 -0.000000 -0.000000
2758
root 0.000475 3.457442 -8.279011 -26.815455 -5.899498 3.642817
Spine 40.571842 -44.048621 -18.909321
Head -105.243324 -54.174151 82.074262
LeftShoulder 19.261745 -7.907205 20.680200
LeftArm 33.404774 31.847735 -40.191142
LeftForeArm 12.833303 -0.000000 17.689131
LeftHand -30.845702 0.000000 -13.770546
LeftHandThumb1 -26.253704 0.000000 33.147579
RightShoulder -16.389985 20.099033 -27.435788
RightArm -4.804522 -38.279079 92.539567
RightForeArm 5.148497 -0.000000 8.827145
RightHand -17.414968 -0.000000 -50.762107
RightHandThumb1 -24.326973 -0.000000 -32.862282
LeftUpLeg -62.684737 12.730536 -8.697709
LeftLeg 5.040791 -0.000000 -0.000000
LeftFoot 32.812274 5.197471 -11.486829
LeftToeBase 17.476511 -0.000000 -0.000000
RightUpLeg -92.563908 34.329886 36.498519
RightLeg 119.865344 -0.000000 -0.000000
RightFoot 6.887079 -8.817125 -3.579961
RightToeBase 3.750934 -0.000000 -0.000000
